PathFileType	4	(X/Y/Z)	RBDS016\RBDS016runT35.trc
DataRate	CameraRate	NumFrames	NumMarkers	Units	OrigDataRate	OrigDataStartFrame	OrigNumFrames
150.000000	150.000000	6	33	mm	150.000000	0	4500
Frame#	Time	L.ASIS			L.Heel.Bottom			L.Heel.Lateral			L.Heel.Top			L.Iliac.Crest			L.MT1			L.MT5			L.PSIS			L.Shank.Bottom.Lateral			L.Shank.Bottom.Medial			L.Shank.Top.Lateral			L.Shank.Top.Medial			L.Thigh.Bottom.Lateral			L.Thigh.Bottom.Medial			L.Thigh.Top.Lateral			L.Thigh.Top.Medial			R.ASIS			R.ASY			R.Heel.Bottom			R.Heel.Lateral			R.Heel.Top			R.Iliac.Crest			R.MT1			R.MT5			R.PSIS			R.Shank.Bottom.Lateral			R.Shank.Bottom.Medial			R.Shank.Top.Lateral			R.Shank.Top.Medial			R.Thigh.Bottom.Lateral			R.Thigh.Bottom.Medial			R.Thigh.Top.Lateral			R.Thigh.Top.Medial			
		X1	Y1	Z1	X2	Y2	Z2	X3	Y3	Z3	X4	Y4	Z4	X5	Y5	Z5	X6	Y6	Z6	X7	Y7	Z7	X8	Y8	Z8	X9	Y9	Z9	X10	Y10	Z10	X11	Y11	Z11	X12	Y12	Z12	X13	Y13	Z13	X14	Y14	Z14	X15	Y15	Z15	X16	Y16	Z16	X17	Y17	Z17	X18	Y18	Z18	X19	Y19	Z19	X20	Y20	Z20	X21	Y21	Z21	X22	Y22	Z22	X23	Y23	Z23	X24	Y24	Z24	X25	Y25	Z25	X26	Y26	Z26	X27	Y27	Z27	X28	Y28	Z28	X29	Y29	Z29	X30	Y30	Z30	X31	Y31	Z31	X32	Y32	Z32	X33	Y33	Z33	

1	0	2521.274689540876	940.6536114921813	878.8638723454948	1851.527139148774	358.7373967919391	949.6649279621026	1866.384081544106	347.2128371014904	900.0368517674206	1897.378188562727	366.6226140492369	937.1467460155452	2474.454030355739	1031.229012535111	838.328324944248	1946.45087357429	159.6898374408458	934.6994055634807	1899.403873734411	200.2761421937148	846.4935421151871	2341.021751480501	1011.964109997261	944.8873813502768	1975.640409013602	379.5917168481665	869.806333882304	1971.900233764859	394.6088415652377	923.1690925011683	2034.047420006209	433.8415057180542	859.920471930905	2031.474810521755	448.3827747011649	911.3766951101669	2291.497847571507	614.0343923522189	822.0262143915156	2242.993484249984	639.9624493959898	870.4675128631302	2330.12307137809	715.4387780025368	806.9167207233188	2282.683688846167	740.1451268468362	852.5986221775529	2515.975672318695	958.4162017882305	1098.386016756755	2791.87707446364	168.3828092075399	1080.479603669239	2659.495490210783	45.48801636593633	1013.782831078165	2665.375452855167	65.40526579570285	1064.17601510946	2643.653169200741	94.11555338319339	1024.677469737057	2446.188965564385	1031.367131651286	1147.364890800518	2838.359774943095	166.0289616685981	1042.691565160977	2802.184194557653	110.3452468509967	1133.202451773587	2341.739482050724	1002.730877009365	1044.038188021333	2648.629174465641	194.0635200774062	1104.283954762012	2616.527038356477	192.3999738947949	1064.0213438402	2614.64409818734	269.1125673596417	1125.234034717489	2582.964230573127	263.7620319489284	1082.830807382663	2517.96405732822	591.4650544941798	1158.628595926907	2469.044251116611	575.3282532863985	1107.433572173126	2467.272426610271	688.4157328211641	1174.616143413468	2422.189440202699	673.4579162834333	1126.029304178241	
2	0.006666666666666667	2521.710387142882	938.7524984153745	879.3543934948386	1851.366601112433	373.1885685870726	950.615170519446	1865.795227485342	361.5288417291505	900.9046129864226	1897.445045972871	379.2475689249824	938.3779453685023	2471.405832816431	1029.527129354461	837.834073672767	1938.06173380961	170.9473341611844	933.8918746256517	1892.937201775411	214.1975108984681	846.0215377663926	2340.908276933158	1007.681591923244	945.6276544636861	1976.336217201915	388.7291778334918	870.2886330992212	1973.516190239968	403.5067429733526	923.7578414451251	2037.014320129253	440.1847606173401	860.3449611419437	2035.369866333532	454.4418106814781	911.969672073135	2297.077904347384	607.5177132094707	822.2482563073266	2248.377240494347	632.7032120781558	870.8269124898407	2334.073248936208	709.511266678986	806.9414798063356	2286.260186922474	733.5908538170506	852.6274651909426	2515.81199268948	954.6851126627669	1099.236495819678	2789.018900226046	164.7994112772832	1078.905978721085	2656.244784664931	40.98836394592193	1013.087307894597	2662.158274906444	61.17268328982797	1063.438650147789	2640.288527025511	89.87202353769848	1023.894469370197	2445.367369968691	1026.776521452212	1148.378528823369	2835.351403586938	162.3326086373907	1040.919942441956	2799.419313908673	106.4247392454431	1131.629769088277	2341.00760128158	998.1703092990474	1044.979980126711	2645.591408773668	190.4107580407496	1103.305765561775	2613.417062383029	188.7274469789539	1063.047677259139	2612.026515114393	265.6972439021222	1124.133757137768	2580.133506155542	260.3036961882999	1081.734694955192	2517.298809159463	589.3759374292573	1158.232240199825	2467.891092195121	572.818158710838	1107.732834144459	2466.577196010149	686.432575701717	1174.10994565477	2420.99278499526	670.9763193952863	1126.184422538224	
3	0.01333333333333333	2522.121045580436	936.6853669430401	879.8602802234191	1851.690782339861	387.4059958195391	951.5493855706551	1865.680146038646	375.6169738778627	901.7506386960912	1897.970227176665	391.6417248352822	939.5630275012587	2468.415020509223	1027.612750714648	837.3369121213159	1930.132155915539	182.0721486805833	933.0573592876876	1886.93362278661	227.964407431293	845.5329903940367	2340.791034415778	1003.198834104932	946.3532442926661	1977.436627265075	397.6639095535469	870.748270593087	1975.524134953175	412.1813922409252	924.3273848168446	2040.351026705186	446.2994435318001	860.7617709451901	2039.618562370698	460.2544218596952	912.5491638750954	2302.722457598627	600.872017362188	822.4902071799206	2253.812516911416	625.2837936926118	871.1981552611724	2338.03544568781	703.4527378918071	807.0022350450702	2289.847464913176	726.8719180001143	852.6924099360452	2515.614234258783	950.9635200726569	1100.095558582836	2785.599463466413	160.7895932776401	1077.263495602448	2652.108174449186	36.62973666003409	1012.359511861099	2658.148118163805	57.06295612236715	1062.643987679503	2636.253314494882	85.77200023038102	1023.026729778495	2444.515274682507	1022.157516140502	1149.382934171344	2831.744726949425	158.0434090947892	1039.067785309001	2795.910735996494	102.1348845394813	1130.011654170088	2340.235394937486	993.4756037482217	1045.903878594558	2642.118959454405	186.5948652625516	1102.276201071385	2609.834372076556	184.9600692808998	1062.063642443534	2609.106008744204	262.1551175852126	1123.026007185487	2576.959330705776	256.7883188767352	1080.672924856586	2516.710725358817	587.1839636827177	1157.810192476959	2466.805064155238	570.2043863182572	1108.023683636859	2465.956784329279	684.3261242906259	1173.628513467299	2419.862683801386	668.378355647687	1126.37797262165	
4	0.02	2522.483563144641	934.2671072667673	880.3989719925278	1852.948882562864	401.1938715913325	952.4579785161013	1866.481765701387	389.289129460584	902.5592438303771	1899.376336575815	403.6063277219465	940.6731863187143	2465.563557794351	1025.228698518203	836.8300753925475	1923.072087671666	192.9662261682804	932.161258844136	1881.821520474918	241.46300636371	845.0048120596042	2340.656488290253	998.3135527279862	947.0241629537627	1979.313537940055	406.2129895175638	871.1670366358086	1978.286337742157	420.4359878673139	924.8592279388399	2044.394224139354	451.9701813309101	861.1594436619056	2044.545569793078	465.5917552950278	913.0981873124649	2308.47713774869	593.9586237470166	822.7614228200167	2259.329625279331	617.5416775015359	871.5826149416115	2342.020072161484	697.1282665604389	807.12962127447	2293.451379278793	719.8270367344346	852.8237355425786	2515.347268591082	947.2473134335	1100.975555642274	2781.119884581642	155.9930040977113	1075.485458839669	2646.303660855797	32.55834884528297	1011.571818979961	2652.645191339858	53.20709686411313	1061.742270789147	2630.957668719102	81.96069169066753	1021.99962006806	2443.585286009734	1017.456325844444	1150.370509024129	2827.008947397762	152.6504179989211	1037.064367280832	2790.997379299265	97.17758064222276	1128.312398013271	2339.376611144972	988.505439891402	1046.766655737318	2637.841317118186	182.4930563107412	1101.146433638562	2605.37508052918	181.0397689399318	1061.056904711614	2605.63575416453	258.39506666494	1121.901992269547	2573.160019125026	253.1910573715428	1079.672636795612	2516.300760818389	584.8005353309609	1157.347434687861	2465.883478198492	567.3909214120364	1108.301844208123	2465.49198713246	681.9793643758928	1173.199856404381	2418.877118604415	665.546447629262	1126.647265853238	
5	0.02666666666666667	2522.775971779031	931.3424559827179	880.9835805848442	1855.498312328353	414.37218702299	953.3326173640518	1868.556771970279	402.3736453287936	903.3177133925833	1901.999284732859	414.9629742247145	941.6865393740493	2462.935420024761	1022.15266492301	836.3075435955657	1917.227872906571	203.5338580004363	931.17375851446	1877.964551305554	254.58121934377	844.4160274445176	2340.484212551393	992.860177834976	947.5959815582546	1982.26635837605	414.2134562658292	871.5304501196956	1982.093002751878	428.1010377283707	925.3374487265914	2049.410521568047	457.0122565622643	861.5264802283484	2050.406722248736	470.2618388716037	913.6008412682239	2314.372917907907	586.6744666410069	823.0633657455265	2264.946101075886	609.3557107727994	871.9737514436108	2346.034063318195	690.4373426516006	807.3441077867416	2297.075001886909	712.3351321763988	853.0412788227806	2514.979535648678	943.530897185891	1101.884902056675	2775.19319950456	150.1755436782447	1073.514801899065	2638.242185860573	28.91479329804643	1010.70789003153	2645.120720265539	49.73855064278386	1060.69738139686	2623.956006707637	78.57351885647184	1020.755054447244	2442.534692642301	1012.622768951849	1151.33535788231	2820.731506498709	145.802717289425	1034.860513058486	2784.17037884856	91.38338318963613	1126.513516975682	2338.389275715329	983.1451610938556	1047.521490587754	2632.486185335839	178.045240017824	1099.873517754787	2599.743074839016	176.9601421054591	1060.013552511896	2601.44242274554	254.3781610931912	1120.750862975071	2568.538042599522	249.5276429916313	1078.751429864668	2516.144133796057	582.1600018791812	1156.842754471124	2465.203375956116	564.3085697481722	1108.567998133999	2465.238704382765	679.3014992670469	1172.856498502361	2418.093810499909	662.391737651839	1127.026019126648	
6	0.03333333333333333	2522.975871562865	927.7950290565375	881.6222827250378	1859.582867721642	426.7820126194578	954.1637557155282	1872.156413024248	414.7194722729191	904.0150821042781	1906.068750632357	425.5600154586501	942.5896395517397	2460.609837639464	1018.210118114265	835.7657042203593	1912.871020559135	213.68053346655	930.0733112468894	1875.650472324343	267.2058119835326	843.7488144816916	2340.243231725738	986.7237840950863	948.0212549681033	1986.508158353759	421.5279450325236	871.828991582933	1987.14845269553	435.0423686132177	925.749536409793	2055.58376810796	461.2808006661054	861.8520616283713	2057.376698004459	474.1208060749834	914.0431986595869	2320.429922524027	578.9628057607232	823.3888738925746	2270.671120821165	600.6571213327433	872.3563548887172	2350.084712926643	683.323926490376	807.6538690095899	2300.722701766615	704.3257761633736	853.3521311300423	2514.48258919612	939.8041414421575	1102.829105768913	2767.562200680121	143.2654613222658	1071.310557786101	2627.572692062423	25.82591185932651	1009.765480878452	2635.254448722194	46.78672340770473	1059.491337301052	2614.974925736407	75.72737079259268	1019.257981803101	2441.324968399672	1007.610729060884	1152.274404507178	2812.638919497506	137.3599709078555	1032.437124812084	2775.10541053167	84.74538375209168	1124.618917751648	2337.236016523985	977.3168161821638	1048.118900284012	2625.893391568096	173.2707247084794	1098.424524667683	2592.767849183484	172.779905830021	1058.919224223388	2596.434641856441	250.1306130866762	1119.560394732779	2562.992552428844	245.8641680041704	1077.915108348692	2516.278428865484	579.2248988964352	1156.31125687544	2464.811285608251	560.9215728747657	1108.827312248504	2465.217145506701	676.2355068741502	1172.633766219471	2417.54081159907	658.8624000259595	1127.54014725885	
